<?xml version="1.0" encoding="utf-8"?>
<!-- Generator: Adobe Illustrator 14.0.0, SVG Export Plug-In . SVG Version: 6.00 Build 43363)  -->
<!DOCTYPE svg PUBLIC "-//W3C//DTD SVG 1.1//EN" "http://www.w3.org/Graphics/SVG/1.1/DTD/svg11.dtd">
<svg version="1.1" id="Layer_1" xmlns="http://www.w3.org/2000/svg" xmlns:xlink="http://www.w3.org/1999/xlink" x="0px" y="0px"
	 width="505px" height="505px" viewBox="0 0 505 505" enable-background="new 0 0 505 505" xml:space="preserve">
<rect y="0.498" fill="#FBDE34" width="504.67" height="504.442"/>
<g>
	<path fill="#524739" d="M217.503,388.691v14.757h-16.155v39.766c0,3.729,0.621,6.214,1.864,7.457
		c1.243,1.242,3.728,1.863,7.456,1.863c1.243,0,2.432-0.051,3.573-0.155c1.138-0.102,2.226-0.257,3.262-0.466V469
		c-1.864,0.311-3.937,0.517-6.213,0.621c-2.279,0.103-4.505,0.155-6.68,0.155c-3.417,0-6.655-0.232-9.708-0.698
		c-3.056-0.467-5.747-1.372-8.077-2.719c-2.33-1.345-4.17-3.262-5.515-5.747c-1.347-2.485-2.019-5.748-2.019-9.786v-47.378h-13.359
		v-14.757h13.359v-24.077h22.058v24.077H217.503z"/>
	<path fill="#524739" d="M248.569,358.091v41.785h0.466c2.796-4.66,6.369-8.051,10.718-10.175c4.349-2.121,8.594-3.185,12.737-3.185
		c5.903,0,10.742,0.804,14.524,2.408c3.778,1.606,6.757,3.832,8.932,6.68c2.175,2.849,3.701,6.317,4.582,10.407
		c0.879,4.092,1.32,8.621,1.32,13.592V469h-22.058v-45.357c0-6.627-1.036-11.573-3.106-14.835
		c-2.073-3.262-5.747-4.894-11.029-4.894c-6.007,0-10.356,1.787-13.048,5.359c-2.694,3.573-4.039,9.451-4.039,17.631V469h-22.058
		V358.091H248.569z"/>
	<path fill="#524739" d="M334.467,449.738c3.313,3.211,8.077,4.815,14.291,4.815c4.451,0,8.283-1.111,11.495-3.34
		c3.208-2.226,5.177-4.582,5.902-7.067h19.417c-3.106,9.631-7.871,16.519-14.291,20.659c-6.422,4.144-14.188,6.214-23.3,6.214
		c-6.318,0-12.015-1.01-17.087-3.029c-5.075-2.02-9.374-4.893-12.894-8.621c-3.521-3.728-6.24-8.18-8.154-13.358
		c-1.918-5.178-2.874-10.874-2.874-17.087c0-6.005,0.982-11.597,2.951-16.776c1.966-5.177,4.762-9.655,8.388-13.437
		c3.624-3.779,7.947-6.757,12.971-8.932c5.021-2.175,10.587-3.263,16.699-3.263c6.834,0,12.788,1.32,17.863,3.962
		c5.072,2.641,9.242,6.188,12.504,10.64c3.263,4.454,5.617,9.529,7.068,15.224c1.449,5.696,1.966,11.649,1.553,17.863H329.03
		C329.341,441.351,331.151,446.53,334.467,449.738z M359.398,407.487c-2.641-2.898-6.655-4.35-12.039-4.35
		c-3.521,0-6.446,0.598-8.776,1.786c-2.33,1.192-4.193,2.668-5.592,4.428c-1.398,1.762-2.384,3.626-2.951,5.592
		c-0.57,1.969-0.908,3.728-1.01,5.281h35.882C363.876,414.633,362.039,410.388,359.398,407.487z"/>
	<path fill="#524739" d="M413.221,388.691v11.185h0.466c2.796-4.66,6.42-8.051,10.874-10.175c4.451-2.121,9.009-3.185,13.669-3.185
		c5.903,0,10.742,0.804,14.524,2.408c3.778,1.606,6.757,3.832,8.932,6.68c2.175,2.849,3.701,6.317,4.582,10.407
		c0.879,4.092,1.32,8.621,1.32,13.592V469H445.53v-45.357c0-6.627-1.036-11.573-3.106-14.835c-2.073-3.262-5.747-4.894-11.029-4.894
		c-6.007,0-10.356,1.787-13.048,5.359c-2.694,3.573-4.039,9.451-4.039,17.631V469H392.25v-80.309H413.221z"/>
</g>
</svg>
